<?xml version="1.0" standalone="no"?>
<!DOCTYPE svg PUBLIC "-//W3C//DTD SVG 20010904//EN"
 "http://www.w3.org/TR/2001/REC-SVG-20010904/DTD/svg10.dtd">
<svg version="1.0" xmlns="http://www.w3.org/2000/svg"
 width="60.000000pt" height="89.000000pt" viewBox="0 0 60.000000 89.000000"
 preserveAspectRatio="xMidYMid meet">

<g transform="translate(0.000000,89.000000) scale(0.100000,-0.100000)"
fill="#044F82" stroke="none">
<path d="M0 445 l0 -445 300 0 300 0 0 445 0 445 -300 0 -300 0 0 -445z m280
101 l0 -264 -80 82 c-44 45 -80 85 -80 89 0 4 18 7 40 7 l40 0 0 175 0 175 40
0 40 0 0 -264z m180 92 c0 -5 -18 -8 -40 -8 l-40 0 0 -175 0 -175 -40 0 -40 0
0 268 0 267 80 -85 c43 -47 79 -88 80 -92z m40 -48 c24 -24 25 -38 4 -68 -28
-40 -104 -21 -104 26 0 29 30 62 56 62 13 0 33 -9 44 -20z m-336 -16 c21 -20
20 -53 -1 -76 -20 -22 -56 -23 -77 -2 -19 18 -21 65 -4 82 17 17 64 15 82 -4z
m-44 -361 l1 -28 15 28 c10 18 23 27 39 27 30 0 31 -4 5 -44 -19 -32 -19 -32
0 -61 11 -17 20 -36 20 -42 0 -25 -38 -12 -59 20 l-21 32 0 -32 c0 -28 -3 -33
-25 -33 -25 0 -25 1 -25 80 0 79 0 80 25 80 21 0 25 -5 25 -27z m176 6 l23
-21 13 21 c7 12 23 21 35 21 22 0 23 -4 23 -80 0 -79 0 -80 -25 -80 -22 0 -25
4 -25 37 0 29 -3 34 -12 25 -9 -9 -16 -8 -30 5 -17 15 -18 14 -18 -25 0 -38
-2 -42 -25 -42 -25 0 -25 1 -25 80 0 76 1 80 22 80 12 0 32 -9 44 -21z m219 7
c16 -12 17 -18 8 -38 -7 -15 -8 -30 -2 -39 14 -22 10 -56 -7 -63 -9 -3 -33 -6
-54 -6 -29 0 -39 4 -43 20 -4 17 0 20 31 20 l35 0 -22 24 -22 23 23 16 c23 16
23 16 -14 16 -31 1 -35 4 -31 21 4 15 14 20 42 20 21 0 46 -6 56 -14z"/>
</g>
</svg>
